<svg width="55" height="55" viewBox="0 0 55 55" fill="none" xmlns="http://www.w3.org/2000/svg">
<g filter="url(#filter0_d)">
<path fill-rule="evenodd" clip-rule="evenodd" d="M31.2512 11.5002C34.9907 12.5021 38.1162 14.9005 40.0518 18.2531C41.9875 21.6059 42.5019 25.5117 41.4999 29.2513C40.4979 32.9909 38.0996 36.1163 34.7469 38.052C32.5137 39.3413 30.035 40 27.5236 40C26.2645 40 24.9974 39.8345 23.7487 39.4999C20.0092 38.4979 16.8837 36.0996 14.948 32.7469C13.0123 29.3942 12.4981 25.4883 13.5001 21.7488C14.5021 18.0093 16.9003 14.8839 20.2531 12.9481C23.6059 11.0123 27.5117 10.4981 31.2512 11.5002ZM33.992 36.7449C36.9957 35.0108 39.1442 32.2107 40.0418 28.8607C40.9395 25.5106 40.4788 22.0114 38.7446 19.0078C37.0105 16.0042 34.2105 13.8557 30.8604 12.958C29.7422 12.6583 28.6066 12.5101 27.4789 12.5101C25.2288 12.5101 23.0086 13.1001 21.0077 14.2553C18.0041 15.9895 15.8556 18.7894 14.958 22.1395C14.0603 25.4896 14.5209 28.9888 16.255 31.9923C17.9892 34.996 20.7892 37.1445 24.1393 38.0421C27.4894 38.9396 30.9885 38.479 33.992 36.7449Z" fill="white"/>
<path fill-rule="evenodd" clip-rule="evenodd" d="M25.1354 18.752L34.4542 24.1322C34.9487 24.4177 35.2439 24.9291 35.2439 25.5C35.2439 26.071 34.9488 26.5823 34.4543 26.8679L25.1353 32.2482C24.8881 32.3908 24.6168 32.4623 24.3455 32.4623C24.0743 32.4623 23.8031 32.391 23.5559 32.2482C23.0613 31.9627 22.7661 31.4513 22.7661 30.8804V20.1198C22.7661 19.5488 23.0614 19.0374 23.5559 18.7519C24.0504 18.4665 24.6409 18.4664 25.1354 18.752ZM24.3805 30.9411L33.6995 25.5608L33.6995 25.5608C33.7108 25.5542 33.7345 25.5405 33.7345 25.5001C33.7345 25.4597 33.7109 25.446 33.6995 25.4395L24.3807 20.0592L24.3806 20.0591C24.3736 20.0551 24.3622 20.0485 24.3464 20.0485C24.3362 20.0485 24.3242 20.0512 24.3105 20.0592C24.2755 20.0794 24.2755 20.1067 24.2755 20.1198V30.8804C24.2755 30.8935 24.2755 30.9208 24.3105 30.9411C24.3454 30.9613 24.3692 30.9477 24.3805 30.9411Z" fill="white"/>
<path d="M36.4097 18.6148C34.6148 16.296 31.9166 14.7382 29.0069 14.3406C28.5944 14.2841 28.2134 14.5732 28.1569 14.9863C28.1006 15.3992 28.3896 15.7797 28.8026 15.8362C31.3238 16.1806 33.6614 17.5303 35.2161 19.5387C35.3648 19.7309 35.5879 19.8315 35.8134 19.8315C35.9748 19.8315 36.1374 19.78 36.2748 19.6735C36.6044 19.4184 36.6648 18.9444 36.4097 18.6148Z" fill="white"/>
</g>
<defs>
<filter id="filter0_d" x="0" y="0" width="55" height="55" filterUnits="userSpaceOnUse" color-interpolation-filters="sRGB">
<feFlood flood-opacity="0" result="BackgroundImageFix"/>
<feColorMatrix in="SourceAlpha" type="matrix" values="0 0 0 0 0 0 0 0 0 0 0 0 0 0 0 0 0 0 127 0"/>
<feOffset dy="2"/>
<feGaussianBlur stdDeviation="6.5"/>
<feColorMatrix type="matrix" values="0 0 0 0 0 0 0 0 0 0 0 0 0 0 0 0 0 0 0.736997 0"/>
<feBlend mode="normal" in2="BackgroundImageFix" result="effect1_dropShadow"/>
<feBlend mode="normal" in="SourceGraphic" in2="effect1_dropShadow" result="shape"/>
</filter>
</defs>
</svg>
