<svg width="18" height="16" viewBox="0 0 18 16" fill="none" xmlns="http://www.w3.org/2000/svg">
<path d="M9.99934 0.516844L11.8918 4.32763C12.0234 4.59267 12.2778 4.77632 12.5722 4.81876L16.804 5.42989C17.5453 5.53702 17.8411 6.44206 17.3049 6.96137L14.2427 9.92763C14.0299 10.1339 13.9326 10.4313 13.983 10.7224L14.7058 14.9109C14.8325 15.6445 14.0576 16.2038 13.3947 15.8577L9.60979 13.8803C9.34659 13.7429 9.03194 13.7429 8.76874 13.8803L4.98384 15.8577C4.32094 16.2041 3.54604 15.6445 3.67274 14.9109L4.39549 10.7224C4.44589 10.4313 4.34859 10.1339 4.13579 9.92763L1.07364 6.96137C0.537441 6.44171 0.833191 5.53667 1.57449 5.42989L5.80634 4.81876C6.10069 4.77632 6.35514 4.59267 6.48674 4.32763L8.37919 0.516844C8.71029 -0.150634 9.66789 -0.150634 9.99934 0.516844Z" fill="#ED8A19"/>
</svg>
